<svg xmlns="http://www.w3.org/2000/svg" viewBox="0 0 483 63.99"><defs><style>.cls-1{fill:#fff;}.cls-2{fill:#db162f;}.cls-3{fill:#3423a6;}</style></defs><title>logo</title><g id="Ebene_2" data-name="Ebene 2"><g id="Ebene_1-2" data-name="Ebene 1"><g id="OR"><g id="Gruppe_3" data-name="Gruppe 3"><path id="Pfad_12" data-name="Pfad 12" class="cls-1" d="M289.83,46.61A16.8,16.8,0,1,1,273,29.83h0A16.49,16.49,0,0,1,289.83,46Zm-5.87,0c0-5.92-4.28-10-10.95-10s-10.85,4.09-10.85,10,4.18,10,10.85,10S284,52.58,284,46.61Z"/><path id="Pfad_13" data-name="Pfad 13" class="cls-1" d="M256.71,12.64C256.71,4.75,261.27.8,266.76.8a9.49,9.49,0,0,1,9.45,7.47L289.5.43V8l-12.78,7.24v3.1H289.5V25H256.71Zm5.45.24v5.5h9.62v-5.5c0-3.67-1.92-5.31-4.88-5.31s-4.74,1.64-4.74,5.31Z"/></g></g><path class="cls-2" d="M0,.9H14.23L34.1,47.34,54,.9H68.1V63.36H55.58V22.73L38.84,63.36H29.35L12.53,22.73V63.36H0Z"/><path class="cls-2" d="M109.45,64c-17.63,0-32-13.25-32-32S91.82,0,109.45,0c17.8,0,31.94,13.25,31.94,32S127.17,64,109.45,64Zm0-11.19c11.27,0,19.06-8.14,19.06-20.85s-7.79-20.67-19.06-20.67S90.29,19.24,90.29,32,98.08,52.8,109.45,52.8Z"/><path class="cls-2" d="M174.15.9c15,0,22.55,8.68,22.55,19.15,0,7.6-4.21,15.3-14.23,18l14.95,25.32h-14.5L169.13,39h-5.9V63.36H150.7V.9Zm-.45,10.38H163.23V29.62H173.7c7,0,10.11-3.67,10.11-9.3S180.68,11.28,173.7,11.28Z"/><path class="cls-2" d="M244.31,11H220.59V26.67h21V36.6h-21V53.16h23.72v10.2H208.06V.81h36.25Z"/><path class="cls-3" d="M311.89,1.31V52.87h20.2v9.75h-32.5V1.31Z"/><path class="cls-3" d="M375.49,11.23H352.21V26.6h20.64v9.75H352.21V52.61h23.28v10H339.91V1.22h35.58Z"/><path class="cls-3" d="M407.81,63.23c-12.74,0-22.58-6.67-22.75-18.27h13.17c.36,4.92,3.61,8.17,9.32,8.17s9.22-3.07,9.22-7.46c0-13.27-31.62-5.27-31.54-27.5,0-11.07,9-17.74,21.61-17.74s21.17,6.41,22,17.48H415.28c-.27-4-3.52-7.2-8.79-7.29-4.83-.18-8.43,2.19-8.43,7.2,0,12.3,31.45,5.45,31.45,27.06C429.51,54.54,421.78,63.23,407.81,63.23Z"/><path class="cls-3" d="M461.3,63.23c-12.74,0-22.57-6.67-22.75-18.27h13.18c.35,4.92,3.6,8.17,9.31,8.17s9.22-3.07,9.22-7.46c0-13.27-31.62-5.27-31.53-27.5,0-11.07,9-17.74,21.6-17.74s21.17,6.41,22,17.48H468.77c-.27-4-3.52-7.2-8.79-7.29-4.83-.18-8.43,2.19-8.43,7.2,0,12.3,31.45,5.45,31.45,27.06C483,54.54,475.27,63.23,461.3,63.23Z"/></g></g></svg>